<svg xmlns="http://www.w3.org/2000/svg" viewBox="0 0 40 40" version="1.1" id="svg2" aria-hidden="true">
    <defs id="defs11">
        <mask maskUnits="userSpaceOnUse" id="mask4258">
            <g id="g4260">
                <rect y="0" x="2" height="24" width="22" style="fill: rgb(255, 255, 255);"></rect>
                <path d="m 21.5,2 -16,20" style="stroke: rgb(0, 0, 0); stroke-width: 2;"></path>
            </g>
        </mask>
    </defs>
    <circle r="20" cy="20" cx="20" id="Oval" style="opacity: 0.7; fill: rgb(15, 23, 30);"></circle>
    <g transform="translate(8,8)" id="icon/unmuted" mask="url(#mask4258)" style="fill: rgb(255, 255, 255);">
        <path id="Fill-1" d="m 4.5488,9 c -0.303,0 -0.549,0.247 -0.549,0.549 l 0,4.902 c 0,0.303 0.246,0.549 0.549,0.549 l 3.451,0 c 0.184,0 0.363,0.051 0.521,0.146 l 6.479,3.949 0,-14.392 -6.461,4.139 C 8.3788,8.945 8.1918,9 7.9998,9 l -3.451,0 z m 11.451,12.875 c -0.18,0 -0.36,-0.049 -0.52,-0.146 L 7.7198,17 4.5488,17 c -1.405,0 -2.549,-1.144 -2.549,-2.549 l 0,-4.902 C 1.9998,8.144 3.1438,7 4.5488,7 l 3.158,0 7.754,-4.967 c 0.31,-0.198 0.699,-0.21 1.019,-0.035 0.321,0.175 0.52,0.511 0.52,0.877 l 0,18 c 0,0.361 -0.195,0.695 -0.511,0.872 -0.151,0.085 -0.32,0.128 -0.489,0.128 l 0,0 z"></path>
        <path id="Fill-3" d="m 19,19 c -0.256,0 -0.512,-0.098 -0.707,-0.293 -0.39,-0.389 -0.391,-1.019 -0.004,-1.41 C 18.375,17.207 20,15.472 20,12 20,8.509 18.357,6.774 18.287,6.702 17.905,6.307 17.91,5.676 18.301,5.29 18.695,4.903 19.32,4.906 19.707,5.293 19.801,5.387 22,7.636 22,12 22,16.364 19.801,18.613 19.707,18.707 19.512,18.902 19.256,19 19,19"></path>
    </g>
    <path d="M 27,10 11,30" style="stroke: rgb(255, 255, 255); stroke-width: 2; stroke-linecap: round;"></path>
</svg>