<svg xmlns="http://www.w3.org/2000/svg" viewBox="0 0 40 40" ari-hidden="true">
    <g id="icon/sound-on" stroke="none" stroke-width="1" fill="none" fill-rule="evenodd">
        <circle id="Oval" fill="#0F171E" opacity="0.7" cx="20" cy="20" r="20"></circle>
        <g id="icon/unmuted" transform="translate(8.000000, 8.000000)" fill="#FFFFFF">
            <path d="M4.5488,9 C4.2458,9 3.9998,9.247 3.9998,9.549 L3.9998,14.451 C3.9998,14.754 4.2458,15 4.5488,15 L7.9998,15 C8.1838,15 8.3628,15.051 8.5208,15.146 L14.9998,19.095 L14.9998,4.703 L8.5388,8.842 C8.3788,8.945 8.1918,9 7.9998,9 L4.5488,9 Z M15.9998,21.875 C15.8198,21.875 15.6398,21.826 15.4798,21.729 L7.7198,17 L4.5488,17 C3.1438,17 1.9998,15.856 1.9998,14.451 L1.9998,9.549 C1.9998,8.144 3.1438,7 4.5488,7 L7.7068,7 L15.4608,2.033 C15.7708,1.835 16.1598,1.823 16.4798,1.998 C16.8008,2.173 16.9998,2.509 16.9998,2.875 L16.9998,20.875 C16.9998,21.236 16.8048,21.57 16.4888,21.747 C16.3378,21.832 16.1688,21.875 15.9998,21.875 L15.9998,21.875 Z" id="Fill-1"></path>
            <path d="M19,19 C18.744,19 18.488,18.902 18.293,18.707 C17.903,18.318 17.902,17.688 18.289,17.297 C18.375,17.207 20,15.472 20,12 C20,8.509 18.357,6.774 18.287,6.702 C17.905,6.307 17.91,5.676 18.301,5.29 C18.695,4.903 19.32,4.906 19.707,5.293 C19.801,5.387 22,7.636 22,12 C22,16.364 19.801,18.613 19.707,18.707 C19.512,18.902 19.256,19 19,19" id="Fill-3"></path>
        </g>
    </g>
</svg>